<?xml version="1.0" encoding="utf-8"?>
<!-- Generator: Adobe Illustrator 19.2.0, SVG Export Plug-In . SVG Version: 6.00 Build 0)  -->
<svg version="1.1" id="Layer_1" xmlns="http://www.w3.org/2000/svg" xmlns:xlink="http://www.w3.org/1999/xlink" x="0px" y="0px"
	 viewBox="0 0 85.3 92.3" style="enable-background:new 0 0 85.3 92.3;" xml:space="preserve">
<style type="text/css">
	.st0{fill:#45C1C6;}
</style>
<g id="vaSkzN_1_">
	<g>
		<path class="st0" d="M165.9-87.5c0.2-0.3,0.5-0.6,0.7-0.8c1.7-1.5,3.4-3.1,5.1-4.6c0.1-0.1,0.2-0.3,0.4-0.6
			c-0.4,0.2-0.6,0.3-0.8,0.4c-1.9,0.9-3.7,1.8-5.6,2.6c-1.5,0.6-3,0.6-4.2-0.9c-0.7-0.8-1.5-1.5-2.3-2.2c-0.2-0.2-0.5-0.5-0.7-0.8
			c-0.9-1.2-0.5-2.2,1-2.2c1.8-0.1,3.4-0.8,4.9-1.7c2.6-1.6,4.8-3.5,6.9-5.7c2.2-2.3,4.2-4.7,6.3-7.1c0.1-0.1,0.2-0.2,0.4-0.4
			c9.3,7.1,18.6,14.3,28,21.5c-1.2,1.3-2.3,2.7-3.5,4c-3.4,3.9-7,7.7-10.9,11.1c-2.1,1.8-4.3,1.9-6.5,0.7c-3.2-1.8-6.3-3.8-9.4-5.7
			c-0.3-0.2-0.7-0.4-1-0.6C171.7-83,168.8-85.2,165.9-87.5z"/>
		<path class="st0" d="M242.8-164.9c1,2.4,0.3,4.7-0.4,6.9c-1,3.1-2.6,5.9-4.6,8.5c-2,2.5-4.1,4.8-6.2,7.2
			c-3.9,4.5-7.9,8.9-11.7,13.4c-3.5,4.3-5.2,9.3-5,14.8c0.1,1.8,0.5,3.6,0.7,5.4c-7.3-5.6-14.7-11.3-22.1-17c1.1,0,2,0,2.9-0.1
			c6.8-0.3,12.2-3.2,16.6-8.4c3.4-4,5.9-8.5,8.5-13c3.3-5.6,6.9-11,11.9-15.3c1.2-1.1,2.7-2,4.1-2.9c1.2-0.7,2.6-0.9,4-0.6
			C242-165.6,242.4-165.2,242.8-164.9z"/>
		<path class="st0" d="M216.1-103.5c-0.8,1-1.5,1.9-2.2,2.9c-9.3-7.2-18.6-14.3-27.9-21.5c0.7-1,1.4-1.9,2.2-2.9
			C197.5-117.8,206.8-110.7,216.1-103.5z"/>
		<path class="st0" d="M210.4-96.1c-0.7,1-1.5,1.9-2.2,2.9c-9.3-7.2-18.6-14.3-27.9-21.5c0.7-1,1.5-1.9,2.2-2.9
			C191.8-110.4,201.1-103.3,210.4-96.1z"/>
		<path class="st0" d="M211.6-97.7c-9.3-7.1-18.6-14.3-27.9-21.4c0.3-0.4,0.7-0.9,1.1-1.4c0.3,0.2,0.6,0.5,0.9,0.7
			c8.6,6.6,17.3,13.3,25.9,19.9C212.9-99,212.9-99,211.6-97.7z"/>
	</g>
</g>
<g id="_x38_rt1PV_1_">
	<g>
		<path class="st0" d="M53.4,0c2.3,0,4.6,0,6.9,0c0.6,0.5,1.3,0.8,1.7,1.4c1.4,2.1,0,4.7-2.6,4.8c-0.7,0-1.5,0-2.2,0
			c0,0.3,0,0.5,0,0.8c0,9.1,0,18.2,0,27.3c0,0.4,0.1,0.7,0.2,1.1c2.7,6.9,5.5,13.8,8.2,20.7c1.8,4.7,3.7,9.3,5.5,14
			c1.7,4.4,3.4,8.8,5.2,13.2c1,2.4,0.4,4.5-1,6.4c-1.1,1.5-2.8,2.2-4.5,2.7c-18.8,0-37.6,0-56.3,0c-0.1,0-0.2-0.1-0.3-0.1
			c-4.5-0.8-7.2-5.8-5.1-9.4c3.1-8.1,6.2-16.2,9.3-24.4C21.3,51,24.2,43.5,27,36c0.3-0.8,0.5-1.7,0.5-2.6c0-8.2,0-16.5,0-24.7
			c0-0.7,0-1.3,0-2c0-0.5-0.2-0.6-0.6-0.6c-0.6,0-1.1,0-1.7,0c-1.5-0.1-2.6-1.1-2.9-2.4c-0.3-1.5,0.4-2.8,1.8-3.5
			c0.1-0.1,0.3-0.2,0.4-0.3c2.3,0,4.5,0,6.8,0c1.8,0.8,2.4,2.2,2.4,4.1c-0.1,10,0,20.1,0,30.1c0,0.9-0.1,1.8-0.4,2.7
			c-1.5,4-3,7.9-4.5,11.9c-2,5.3-4.1,10.7-6.1,16c-0.2,0.5-0.3,1-0.5,1.5c13.7,0,27.2,0,40.9,0c-0.1-0.4-0.2-0.7-0.3-1
			c-1-2.4-1.9-4.8-2.9-7.3c-2.7-6.8-5.4-13.6-8-20.4c-0.4-0.9-0.7-1.9-0.7-2.8c0-10.5,0-21,0-31.5c0-1.5,0.7-2.6,2.1-3.2
			C53.3,0.1,53.4,0.1,53.4,0z"/>
		<path class="st0" d="M45.4,46.2c1.7,0,3.2,1.4,3.2,3.2c0,1.7-1.4,3.2-3.1,3.3c-1.8,0-3.2-1.5-3.2-3.2
			C42.2,47.6,43.7,46.2,45.4,46.2z M45.4,47.8c-0.9,0-1.6,0.7-1.7,1.6c0,0.9,0.8,1.7,1.7,1.7c0.9,0,1.6-0.7,1.7-1.6
			C47.1,48.5,46.4,47.7,45.4,47.8z"/>
		<path class="st0" d="M50.9,54.8c1.3,0,2.3,1,2.3,2.2c0,1.2-1,2.3-2.3,2.3c-1.3,0-2.3-1-2.3-2.2C48.7,55.9,49.7,54.8,50.9,54.8z
			 M51.8,57.2c0-0.1,0-0.2,0-0.3c-0.3-0.2-0.6-0.5-0.9-0.5c-0.5,0-0.8,0.3-0.7,0.8c0.1,0.3,0.5,0.6,0.8,0.6
			C51.3,57.8,51.6,57.4,51.8,57.2z"/>
		<path class="st0" d="M39,61.7c-1.3,0-2.3-1-2.3-2.3c0-1.2,1.1-2.3,2.3-2.3c1.2,0,2.2,1.1,2.3,2.3C41.3,60.7,40.3,61.7,39,61.7z
			 M38.1,59.2c0,0.1,0,0.2,0,0.3c0.3,0.2,0.6,0.6,0.8,0.6c0.3,0,0.7-0.4,0.7-0.7c0-0.3-0.4-0.7-0.7-0.7C38.8,58.7,38.4,59,38.1,59.2
			z"/>
	</g>
</g>
</svg>
