<?xml version="1.0" encoding="utf-8"?>
<!-- Generator: Adobe Illustrator 19.2.0, SVG Export Plug-In . SVG Version: 6.00 Build 0)  -->
<svg version="1.1" id="Layer_1" xmlns="http://www.w3.org/2000/svg" xmlns:xlink="http://www.w3.org/1999/xlink" x="0px" y="0px"
	 viewBox="0 0 85.3 92.3" style="enable-background:new 0 0 85.3 92.3;" xml:space="preserve">
<style type="text/css">
	.st0{fill:#45C1C6;}
	.st1{fill:#FFFFFF;}
</style>
<g id="vaSkzN_1_">
	<g>
		<path class="st0" d="M261.9-276.9c0.2-0.3,0.5-0.6,0.7-0.8c1.7-1.5,3.4-3.1,5.1-4.6c0.1-0.1,0.2-0.3,0.4-0.6
			c-0.4,0.2-0.6,0.3-0.8,0.4c-1.9,0.9-3.7,1.8-5.6,2.6c-1.5,0.6-3,0.6-4.2-0.9c-0.7-0.8-1.5-1.5-2.3-2.2c-0.2-0.2-0.5-0.5-0.7-0.8
			c-0.9-1.2-0.5-2.2,1-2.2c1.8-0.1,3.4-0.8,4.9-1.7c2.6-1.6,4.8-3.5,6.9-5.7c2.2-2.3,4.2-4.7,6.3-7.1c0.1-0.1,0.2-0.2,0.4-0.4
			c9.3,7.1,18.6,14.3,28,21.5c-1.2,1.3-2.3,2.7-3.5,4c-3.4,3.9-7,7.7-10.9,11.1c-2.1,1.8-4.3,1.9-6.5,0.7c-3.2-1.8-6.3-3.8-9.4-5.7
			c-0.3-0.2-0.7-0.4-1-0.6C267.8-272.4,264.8-274.6,261.9-276.9z"/>
		<path class="st0" d="M338.9-354.3c1,2.4,0.3,4.7-0.4,6.9c-1,3.1-2.6,5.9-4.6,8.5c-2,2.5-4.1,4.8-6.2,7.2
			c-3.9,4.5-7.9,8.9-11.7,13.4c-3.5,4.3-5.2,9.3-5,14.8c0.1,1.8,0.5,3.6,0.7,5.4c-7.3-5.6-14.7-11.3-22.1-17c1.1,0,2,0,2.9-0.1
			c6.8-0.3,12.2-3.2,16.6-8.4c3.4-4,5.9-8.5,8.5-13c3.3-5.6,6.9-11,11.9-15.3c1.2-1.1,2.7-2,4.1-2.9c1.2-0.7,2.6-0.9,4-0.6
			C338-354.9,338.5-354.6,338.9-354.3z"/>
		<path class="st0" d="M312.2-292.9c-0.8,1-1.5,1.9-2.2,2.9c-9.3-7.2-18.6-14.3-27.9-21.5c0.7-1,1.4-1.9,2.2-2.9
			C293.5-307.2,302.8-300.1,312.2-292.9z"/>
		<path class="st0" d="M306.5-285.5c-0.7,1-1.5,1.9-2.2,2.9c-9.3-7.2-18.6-14.3-27.9-21.5c0.7-1,1.5-1.9,2.2-2.9
			C287.8-299.8,297.1-292.7,306.5-285.5z"/>
		<path class="st0" d="M307.7-287.1c-9.3-7.1-18.6-14.3-27.9-21.4c0.3-0.4,0.7-0.9,1.1-1.4c0.3,0.2,0.6,0.5,0.9,0.7
			c8.6,6.6,17.3,13.3,25.9,19.9C308.9-288.4,308.9-288.4,307.7-287.1z"/>
	</g>
</g>
<g id="_x38_rt1PV_1_">
	<g>
		<path class="st0" d="M317.3-246.4c2.3,0,4.6,0,6.9,0c0.6,0.5,1.3,0.8,1.7,1.4c1.4,2.1,0,4.7-2.6,4.8c-0.7,0-1.5,0-2.2,0
			c0,0.3,0,0.5,0,0.8c0,9.1,0,18.2,0,27.3c0,0.4,0.1,0.7,0.2,1.1c2.7,6.9,5.5,13.8,8.2,20.7c1.8,4.7,3.7,9.3,5.5,14
			c1.7,4.4,3.4,8.8,5.2,13.2c1,2.4,0.4,4.5-1,6.4c-1.1,1.5-2.8,2.2-4.5,2.7c-18.8,0-37.6,0-56.3,0c-0.1,0-0.2-0.1-0.3-0.1
			c-4.5-0.8-7.2-5.8-5.1-9.4c3.1-8.1,6.2-16.2,9.3-24.4c2.9-7.5,5.7-14.9,8.6-22.4c0.3-0.8,0.5-1.7,0.5-2.6c0-8.2,0-16.5,0-24.7
			c0-0.7,0-1.3,0-2c0-0.5-0.2-0.6-0.6-0.6c-0.6,0-1.1,0-1.7,0c-1.5-0.1-2.6-1.1-2.9-2.4c-0.3-1.5,0.4-2.8,1.8-3.5
			c0.1-0.1,0.3-0.2,0.4-0.3c2.3,0,4.5,0,6.8,0c1.8,0.8,2.4,2.2,2.4,4.1c-0.1,10,0,20.1,0,30.1c0,0.9-0.1,1.8-0.4,2.7
			c-1.5,4-3,7.9-4.5,11.9c-2,5.3-4.1,10.7-6.1,16c-0.2,0.5-0.3,1-0.5,1.5c13.7,0,27.2,0,40.9,0c-0.1-0.4-0.2-0.7-0.3-1
			c-1-2.4-1.9-4.8-2.9-7.3c-2.7-6.8-5.4-13.6-8-20.4c-0.4-0.9-0.7-1.9-0.7-2.8c0-10.5,0-21,0-31.5c0-1.5,0.7-2.6,2.1-3.2
			C317.1-246.3,317.2-246.4,317.3-246.4z"/>
		<path class="st0" d="M309.3-200.2c1.7,0,3.2,1.4,3.2,3.2c0,1.7-1.4,3.2-3.1,3.3c-1.8,0-3.2-1.5-3.2-3.2
			C306.1-198.8,307.5-200.2,309.3-200.2z M309.3-198.7c-0.9,0-1.6,0.7-1.7,1.6c0,0.9,0.8,1.7,1.7,1.7c0.9,0,1.6-0.7,1.7-1.6
			C310.9-197.9,310.2-198.7,309.3-198.7z"/>
		<path class="st0" d="M314.8-191.6c1.3,0,2.3,1,2.3,2.2c0,1.2-1,2.3-2.3,2.3c-1.3,0-2.3-1-2.3-2.2
			C312.5-190.6,313.5-191.6,314.8-191.6z M315.7-189.2c0-0.1,0-0.2,0-0.3c-0.3-0.2-0.6-0.5-0.9-0.5c-0.5,0-0.8,0.3-0.7,0.8
			c0.1,0.3,0.5,0.6,0.8,0.6C315.1-188.6,315.4-189,315.7-189.2z"/>
		<path class="st0" d="M302.8-184.7c-1.3,0-2.3-1-2.3-2.3c0-1.2,1.1-2.3,2.3-2.3c1.2,0,2.2,1.1,2.3,2.3
			C305.1-185.7,304.1-184.7,302.8-184.7z M302-187.2c0,0.1,0,0.2,0,0.3c0.3,0.2,0.6,0.6,0.8,0.6c0.3,0,0.7-0.4,0.7-0.7
			c0-0.3-0.4-0.7-0.7-0.7C302.6-187.7,302.3-187.4,302-187.2z"/>
	</g>
</g>
<g id="jnqrx2.tif">
	<g>
		<path class="st0" d="M120.3-211.8c0-14.1,0-28.2,0-42.3c0.1-0.1,0.1-0.2,0.2-0.4c0.8-3.5,3-5.7,6.5-6.3c3.6-0.7,7.2-1.2,10.7-1.8
			c0.6-0.1,0.9-0.3,1.2-0.9c1-2.7,2.2-5.5,3.3-8.2c1.3-3.3,4.1-5.2,7.7-5.2c8.7,0,17.5,0,26.2,0c3.6,0,6.4,1.9,7.7,5.2
			c1.1,2.7,2.2,5.4,3.3,8.2c0.2,0.6,0.6,0.8,1.1,0.9c3.6,0.6,7.3,1.2,10.9,1.8c3.8,0.7,6.5,3.9,6.5,7.7c0,13.4,0,26.8,0,40.2
			c0,2.9-1.3,5.2-3.8,6.7c-0.9,0.5-2,0.8-3,1.2c-23.9,0-47.8,0-71.7,0c-0.3-0.1-0.6-0.2-0.8-0.3c-2.8-0.8-4.6-2.5-5.6-5.2
			C120.5-210.9,120.4-211.3,120.3-211.8z M162.9-210.3c11.4,0,22.8,0,34.2,0c2,0,3.1-1,3.1-3.1c0-13.1,0-26.2,0-39.2
			c0-1.8-0.8-2.8-2.6-3.1c-4.5-0.8-9-1.5-13.5-2.3c-0.5-0.1-0.7-0.3-0.9-0.7c-1.4-3.6-2.9-7.3-4.3-10.9c-0.6-1.6-1.4-2.1-3.1-2.1
			c-8.6,0-17.2,0-25.7,0c-1.7,0-2.5,0.5-3.1,2.2c-1.4,3.6-2.9,7.1-4.3,10.7c-0.2,0.5-0.5,0.8-1,0.8c-4.4,0.7-8.8,1.5-13.2,2.2
			c-2.1,0.4-2.8,1.2-2.8,3.3c0,12.9,0,25.9,0,38.8c0,2.2,1,3.2,3.3,3.2C140.2-210.3,151.6-210.3,162.9-210.3z"/>
		<path class="st0" d="M162.9-215.6c-11.8,0-21.3-9.6-21.3-21.4c0-11.8,9.6-21.3,21.4-21.2c11.7,0,21.2,9.6,21.2,21.4
			C184.2-225.1,174.7-215.6,162.9-215.6z M179-236.9c0-8.9-7.1-16-16-16.1c-8.7,0-16,7.2-16,15.9c0,8.8,7.1,16.1,15.9,16.1
			C171.7-220.9,178.9-228,179-236.9z"/>
		<path class="st0" d="M162.6-247.6c1.1,0,1.7,0.4,1.7,1.3c0,0.8-0.5,1.3-1.6,1.4c-4.2,0.2-7.5,3.5-7.7,7.7
			c-0.1,1.1-0.5,1.6-1.4,1.6c-0.8,0-1.3-0.6-1.3-1.7C152.4-242.7,157.1-247.5,162.6-247.6z"/>
	</g>
</g>
<g id="R7Ord0.tif">
	<g>
		<path class="st0" d="M140.8-100.7c-1.4,0-2.9,0-4.3,0c-1.9-0.3-3.8-0.5-5.7-0.8c-21.6-4-36.7-24.2-34.3-46.1
			c1.2-10.7,5.6-19.8,13.6-26.9c12.3-11,26.7-14,42.3-8.8c21.2,7.1,33.1,28.9,27.4,50.6c-4.5,17-15.8,27.4-33,31.3
			C144.8-101.1,142.8-100.9,140.8-100.7z M138.7-109.1c18.1,0.2,33.9-14.5,34.2-33.7c0.2-19.5-15.5-34.1-33.2-34.6
			c-18.7-0.5-35,14.4-35.1,34.1C104.5-124.4,119.8-109.1,138.7-109.1z"/>
		<path class="st0" d="M127.1-148.9c4.7-2.5,9.5-5,14.2-7.5c0.3-0.2,0.5-0.8,0.5-1.1c0.1-4.1,2.7-7.4,6.7-8.3c4.5-1,9,2,9.9,6.7
			c0.9,4.4-2.3,8.9-6.7,9.7c-2.4,0.4-4.5-0.1-6.5-1.5c-0.3-0.2-0.8-0.2-1.1-0.1c-4.7,2.4-9.3,4.9-13.9,7.3c-0.9,0.4-0.7,1.1-0.7,1.7
			c0,0.2,0.4,0.6,0.7,0.8c4.4,2.2,8.8,4.3,13.2,6.5c0.6,0.3,0.9,0.2,1.4-0.2c2.8-2.4,6.5-2.8,9.6-1.1c3,1.6,4.7,5.1,4.2,8.5
			c-0.5,3.5-3.1,6.2-6.6,7c-4.8,1-9.4-2.4-9.9-7.4c-0.1-0.7-0.3-1-0.9-1.3c-4.6-2.3-9.3-4.6-13.9-6.9c-0.6-0.3-1-0.3-1.7,0.1
			c-3,1.8-6.1,1.8-9-0.2c-3-2-4.1-4.9-3.5-8.4c0.6-3.4,2.8-5.7,6.2-6.6c2.7-0.7,5.2-0.1,7.3,1.7
			C126.6-149.3,126.8-149.1,127.1-148.9z"/>
	</g>
</g>
<g id="_x31_zoYIL.tif">
	<g>
		<path class="st1" d="M56.1,91.2c-8.8,0-17.7,0-26.5,0c-0.4,0-0.7-0.1-1.1-0.1c-2.6-0.2-5.2-0.2-7.8-0.6c-4.4-0.6-8.5-2.2-12-5.1
			c-5.6-4.7-7.8-10.9-8.3-17.9c-0.1-1.9-0.2-3.9-0.4-5.8c0-8.8,0-17.7,0-26.5c0-0.4,0.1-0.8,0.1-1.2c0.3-3.2,0.3-6.5,1-9.6
			c1.4-7.2,5.4-12.5,12-15.8c4.2-2.1,8.7-2.7,13.3-2.8C35.2,5.6,44,5.5,52.8,5.5c4.7,0,9.5,0,14.1,1c7.5,1.6,13,5.8,16.2,12.8
			c1.8,4,2.4,8.4,2.4,12.7c0.1,9.1,0.2,18.3,0.1,27.4c0,4.3,0,8.6-1,12.8c-1.7,7.8-6.1,13.4-13.5,16.5c-3.9,1.6-8,2-12.1,2.2
			C58,91,57.1,91.1,56.1,91.2z M42.8,83.5c0,0,0-0.1,0-0.1c2.9,0,5.8,0,8.8,0c4.4,0,8.8,0.1,13.1-0.7c6.4-1.2,10.6-4.8,12.2-11.2
			c0.9-3.4,0.9-6.9,1-10.4c0.1-8.5,0.1-17,0-25.5c0-3-0.2-6.1-0.7-9c-1.1-6.4-4.8-10.6-11.2-12.3c-3.4-0.9-6.8-0.9-10.3-1
			c-7.2-0.1-14.4-0.1-21.6,0c-4.4,0-8.8-0.1-13.1,0.7c-6.3,1.2-10.5,4.8-12.2,11.1c-0.9,3.4-0.9,6.9-1,10.4
			c-0.1,8.5-0.1,17.1,0,25.6c0,3,0.2,6.1,0.7,9c0.7,4.5,2.9,8.1,6.8,10.5c3.1,1.9,6.7,2.5,10.3,2.6C31.3,83.3,37,83.4,42.8,83.5z"/>
		<path class="st1" d="M42.9,70.3c-12.1,0.1-22-9.9-22-22c0-12.1,9.8-21.9,22-22c12.1-0.1,22,9.8,22,22C64.8,60.4,55,70.3,42.9,70.3
			z M42.8,62.6c7.8,0,14.3-6.4,14.3-14.3c0-7.8-6.4-14.3-14.2-14.3c-7.9,0-14.4,6.4-14.4,14.2C28.5,56.1,35,62.6,42.8,62.6z"/>
		<path class="st1" d="M70.9,25.4c0,2.8-2.3,5.2-5.1,5.2c-2.8,0-5.2-2.3-5.2-5.1c0-2.8,2.3-5.2,5.1-5.2
			C68.4,20.2,70.8,22.6,70.9,25.4z"/>
	</g>
</g>
</svg>
