<?xml version="1.0" encoding="utf-8"?>
<!-- Generator: Adobe Illustrator 19.2.0, SVG Export Plug-In . SVG Version: 6.00 Build 0)  -->
<svg version="1.1" id="Layer_1" xmlns="http://www.w3.org/2000/svg" xmlns:xlink="http://www.w3.org/1999/xlink" x="0px" y="0px"
	 viewBox="0 0 85.3 92.3" style="enable-background:new 0 0 85.3 92.3;" xml:space="preserve">
<style type="text/css">
	.st0{fill:#45C1C6;}
</style>
<g id="vaSkzN_1_">
	<g>
		<path class="st0" d="M7.9,78.5c0.2-0.3,0.5-0.6,0.7-0.8c1.7-1.5,3.4-3.1,5.1-4.6c0.1-0.1,0.2-0.3,0.4-0.6
			c-0.4,0.2-0.6,0.3-0.8,0.4c-1.9,0.9-3.7,1.8-5.6,2.6c-1.5,0.6-3,0.6-4.2-0.9c-0.7-0.8-1.5-1.5-2.3-2.2c-0.2-0.2-0.5-0.5-0.7-0.8
			c-0.9-1.2-0.5-2.2,1-2.2c1.8-0.1,3.4-0.8,4.9-1.7c2.6-1.6,4.8-3.5,6.9-5.7c2.2-2.3,4.2-4.7,6.3-7.1c0.1-0.1,0.2-0.2,0.4-0.4
			c9.3,7.1,18.6,14.3,28,21.5c-1.2,1.3-2.3,2.7-3.5,4c-3.4,3.9-7,7.7-10.9,11.1c-2.1,1.8-4.3,1.9-6.5,0.7c-3.2-1.8-6.3-3.8-9.4-5.7
			c-0.3-0.2-0.7-0.4-1-0.6C13.7,83,10.8,80.8,7.9,78.5z"/>
		<path class="st0" d="M84.8,1.1c1,2.4,0.3,4.7-0.4,6.9c-1,3.1-2.6,5.9-4.6,8.5c-2,2.5-4.1,4.8-6.2,7.2c-3.9,4.5-7.9,8.9-11.7,13.4
			c-3.5,4.3-5.2,9.3-5,14.8c0.1,1.8,0.5,3.6,0.7,5.4c-7.3-5.6-14.7-11.3-22.1-17c1.1,0,2,0,2.9-0.1c6.8-0.3,12.2-3.2,16.6-8.4
			c3.4-4,5.9-8.5,8.5-13c3.3-5.6,6.9-11,11.9-15.3c1.2-1.1,2.7-2,4.1-2.9c1.2-0.7,2.6-0.9,4-0.6C84,0.4,84.4,0.8,84.8,1.1z"/>
		<path class="st0" d="M58.1,62.5c-0.8,1-1.5,1.9-2.2,2.9C46.6,58.2,37.3,51.1,28,43.9c0.7-1,1.4-1.9,2.2-2.9
			C39.5,48.2,48.8,55.3,58.1,62.5z"/>
		<path class="st0" d="M52.4,69.9c-0.7,1-1.5,1.9-2.2,2.9c-9.3-7.2-18.6-14.3-27.9-21.5c0.7-1,1.5-1.9,2.2-2.9
			C33.8,55.6,43.1,62.7,52.4,69.9z"/>
		<path class="st0" d="M53.6,68.3C44.3,61.1,35,54,25.7,46.9c0.3-0.4,0.7-0.9,1.1-1.4c0.3,0.2,0.6,0.5,0.9,0.7
			c8.6,6.6,17.3,13.3,25.9,19.9C54.9,67,54.9,67,53.6,68.3z"/>
	</g>
</g>
</svg>
