<?xml version="1.0" encoding="utf-8"?>
<!-- Generator: Adobe Illustrator 19.2.0, SVG Export Plug-In . SVG Version: 6.00 Build 0)  -->
<svg version="1.1" id="Layer_1" xmlns="http://www.w3.org/2000/svg" xmlns:xlink="http://www.w3.org/1999/xlink" x="0px" y="0px"
	 viewBox="0 0 85.3 92.3" style="enable-background:new 0 0 85.3 92.3;" xml:space="preserve">
<style type="text/css">
	.st0{fill:#45C1C6;}
</style>
<g id="vaSkzN_1_">
	<g>
		<path class="st0" d="M165.9-87.5c0.2-0.3,0.5-0.6,0.7-0.8c1.7-1.5,3.4-3.1,5.1-4.6c0.1-0.1,0.2-0.3,0.4-0.6
			c-0.4,0.2-0.6,0.3-0.8,0.4c-1.9,0.9-3.7,1.8-5.6,2.6c-1.5,0.6-3,0.6-4.2-0.9c-0.7-0.8-1.5-1.5-2.3-2.2c-0.2-0.2-0.5-0.5-0.7-0.8
			c-0.9-1.2-0.5-2.2,1-2.2c1.8-0.1,3.4-0.8,4.9-1.7c2.6-1.6,4.8-3.5,6.9-5.7c2.2-2.3,4.2-4.7,6.3-7.1c0.1-0.1,0.2-0.2,0.4-0.4
			c9.3,7.1,18.6,14.3,28,21.5c-1.2,1.3-2.3,2.7-3.5,4c-3.4,3.9-7,7.7-10.9,11.1c-2.1,1.8-4.3,1.9-6.5,0.7c-3.2-1.8-6.3-3.8-9.4-5.7
			c-0.3-0.2-0.7-0.4-1-0.6C171.7-83,168.8-85.2,165.9-87.5z"/>
		<path class="st0" d="M242.8-164.9c1,2.4,0.3,4.7-0.4,6.9c-1,3.1-2.6,5.9-4.6,8.5c-2,2.5-4.1,4.8-6.2,7.2
			c-3.9,4.5-7.9,8.9-11.7,13.4c-3.5,4.3-5.2,9.3-5,14.8c0.1,1.8,0.5,3.6,0.7,5.4c-7.3-5.6-14.7-11.3-22.1-17c1.1,0,2,0,2.9-0.1
			c6.8-0.3,12.2-3.2,16.6-8.4c3.4-4,5.9-8.5,8.5-13c3.3-5.6,6.9-11,11.9-15.3c1.2-1.1,2.7-2,4.1-2.9c1.2-0.7,2.6-0.9,4-0.6
			C242-165.6,242.4-165.2,242.8-164.9z"/>
		<path class="st0" d="M216.1-103.5c-0.8,1-1.5,1.9-2.2,2.9c-9.3-7.2-18.6-14.3-27.9-21.5c0.7-1,1.4-1.9,2.2-2.9
			C197.5-117.8,206.8-110.7,216.1-103.5z"/>
		<path class="st0" d="M210.4-96.1c-0.7,1-1.5,1.9-2.2,2.9c-9.3-7.2-18.6-14.3-27.9-21.5c0.7-1,1.5-1.9,2.2-2.9
			C191.8-110.4,201.1-103.3,210.4-96.1z"/>
		<path class="st0" d="M211.6-97.7c-9.3-7.1-18.6-14.3-27.9-21.4c0.3-0.4,0.7-0.9,1.1-1.4c0.3,0.2,0.6,0.5,0.9,0.7
			c8.6,6.6,17.3,13.3,25.9,19.9C212.9-99,212.9-99,211.6-97.7z"/>
	</g>
</g>
<g id="_x38_rt1PV_1_">
	<g>
		<path class="st0" d="M221.2-57c2.3,0,4.6,0,6.9,0c0.6,0.5,1.3,0.8,1.7,1.4c1.4,2.1,0,4.7-2.6,4.8c-0.7,0-1.5,0-2.2,0
			c0,0.3,0,0.5,0,0.8c0,9.1,0,18.2,0,27.3c0,0.4,0.1,0.7,0.2,1.1c2.7,6.9,5.5,13.8,8.2,20.7c1.8,4.7,3.7,9.3,5.5,14
			c1.7,4.4,3.4,8.8,5.2,13.2c1,2.4,0.4,4.5-1,6.4c-1.1,1.5-2.8,2.2-4.5,2.7c-18.8,0-37.6,0-56.3,0c-0.1,0-0.2-0.1-0.3-0.1
			c-4.5-0.8-7.2-5.8-5.1-9.4c3.1-8.1,6.2-16.2,9.3-24.4c2.9-7.5,5.7-14.9,8.6-22.4c0.3-0.8,0.5-1.7,0.5-2.6c0-8.2,0-16.5,0-24.7
			c0-0.7,0-1.3,0-2c0-0.5-0.2-0.6-0.6-0.6c-0.6,0-1.1,0-1.7,0c-1.5-0.1-2.6-1.1-2.9-2.4c-0.3-1.5,0.4-2.8,1.8-3.5
			c0.1-0.1,0.3-0.2,0.4-0.3c2.3,0,4.5,0,6.8,0c1.8,0.8,2.4,2.2,2.4,4.1c-0.1,10,0,20.1,0,30.1c0,0.9-0.1,1.8-0.4,2.7
			c-1.5,4-3,7.9-4.5,11.9c-2,5.3-4.1,10.7-6.1,16c-0.2,0.5-0.3,1-0.5,1.5c13.7,0,27.2,0,40.9,0c-0.1-0.4-0.2-0.7-0.3-1
			c-1-2.4-1.9-4.8-2.9-7.3c-2.7-6.8-5.4-13.6-8-20.4c-0.4-0.9-0.7-1.9-0.7-2.8c0-10.5,0-21,0-31.5c0-1.5,0.7-2.6,2.1-3.2
			C221.1-56.9,221.1-57,221.2-57z"/>
		<path class="st0" d="M213.2-10.8c1.7,0,3.2,1.4,3.2,3.2c0,1.7-1.4,3.2-3.1,3.3c-1.8,0-3.2-1.5-3.2-3.2
			C210-9.4,211.5-10.8,213.2-10.8z M213.2-9.3c-0.9,0-1.6,0.7-1.7,1.6c0,0.9,0.8,1.7,1.7,1.7c0.9,0,1.6-0.7,1.7-1.6
			C214.9-8.5,214.1-9.3,213.2-9.3z"/>
		<path class="st0" d="M218.7-2.2c1.3,0,2.3,1,2.3,2.2c0,1.2-1,2.3-2.3,2.3c-1.3,0-2.3-1-2.3-2.2C216.4-1.2,217.4-2.2,218.7-2.2z
			 M219.6,0.2c0-0.1,0-0.2,0-0.3c-0.3-0.2-0.6-0.5-0.9-0.5c-0.5,0-0.8,0.3-0.7,0.8c0.1,0.3,0.5,0.6,0.8,0.6
			C219,0.8,219.3,0.4,219.6,0.2z"/>
		<path class="st0" d="M206.8,4.7c-1.3,0-2.3-1-2.3-2.3c0-1.2,1.1-2.3,2.3-2.3c1.2,0,2.2,1.1,2.3,2.3C209.1,3.7,208.1,4.7,206.8,4.7
			z M205.9,2.2c0,0.1,0,0.2,0,0.3c0.3,0.2,0.6,0.6,0.8,0.6c0.3,0,0.7-0.4,0.7-0.7c0-0.3-0.4-0.7-0.7-0.7
			C206.5,1.7,206.2,2,205.9,2.2z"/>
	</g>
</g>
<g id="jnqrx2.tif">
	<g>
		<path class="st0" d="M24.2-22.4c0-14.1,0-28.2,0-42.3c0.1-0.1,0.1-0.2,0.2-0.4c0.8-3.5,3-5.7,6.5-6.3c3.6-0.7,7.2-1.2,10.7-1.8
			c0.6-0.1,0.9-0.3,1.2-0.9c1-2.7,2.2-5.5,3.3-8.2c1.3-3.3,4.1-5.2,7.7-5.2c8.7,0,17.5,0,26.2,0c3.6,0,6.4,1.9,7.7,5.2
			c1.1,2.7,2.2,5.4,3.3,8.2c0.2,0.6,0.6,0.8,1.1,0.9c3.6,0.6,7.3,1.2,10.9,1.8c3.8,0.7,6.5,3.9,6.5,7.7c0,13.4,0,26.8,0,40.2
			c0,2.9-1.3,5.2-3.8,6.7c-0.9,0.5-2,0.8-3,1.2c-23.9,0-47.8,0-71.7,0c-0.3-0.1-0.6-0.2-0.8-0.3c-2.8-0.8-4.6-2.5-5.6-5.2
			C24.5-21.5,24.4-21.9,24.2-22.4z M66.9-20.9c11.4,0,22.8,0,34.2,0c2,0,3.1-1,3.1-3.1c0-13.1,0-26.2,0-39.2c0-1.8-0.8-2.8-2.6-3.1
			c-4.5-0.8-9-1.5-13.5-2.3c-0.5-0.1-0.7-0.3-0.9-0.7c-1.4-3.6-2.9-7.3-4.3-10.9c-0.6-1.6-1.4-2.1-3.1-2.1c-8.6,0-17.2,0-25.7,0
			c-1.7,0-2.5,0.5-3.1,2.2c-1.4,3.6-2.9,7.1-4.3,10.7c-0.2,0.5-0.5,0.8-1,0.8c-4.4,0.7-8.8,1.5-13.2,2.2c-2.1,0.4-2.8,1.2-2.8,3.3
			c0,12.9,0,25.9,0,38.8c0,2.2,1,3.2,3.3,3.2C44.2-20.9,55.5-20.9,66.9-20.9z"/>
		<path class="st0" d="M66.9-26.2c-11.8,0-21.3-9.6-21.3-21.4c0-11.8,9.6-21.3,21.4-21.2c11.7,0,21.2,9.6,21.2,21.4
			C88.2-35.7,78.6-26.2,66.9-26.2z M82.9-47.5c0-8.9-7.1-16-16-16.1c-8.7,0-16,7.2-16,15.9c0,8.8,7.1,16.1,15.9,16.1
			C75.6-31.5,82.9-38.6,82.9-47.5z"/>
		<path class="st0" d="M66.5-58.2c1.1,0,1.7,0.4,1.7,1.3c0,0.8-0.5,1.3-1.6,1.4c-4.2,0.2-7.5,3.5-7.7,7.7c-0.1,1.1-0.5,1.6-1.4,1.6
			c-0.8,0-1.3-0.6-1.3-1.7C56.3-53.3,61.1-58.1,66.5-58.2z"/>
	</g>
</g>
<g id="R7Ord0.tif">
	<g>
		<path class="st0" d="M44.7,88.7c-1.4,0-2.9,0-4.3,0c-1.9-0.3-3.8-0.5-5.7-0.8C13.1,83.9-2,63.7,0.4,41.8C1.6,31.1,6,22,14,14.9
			c12.3-11,26.7-14,42.3-8.8C77.5,13.1,89.4,35,83.7,56.6c-4.5,17-15.8,27.4-33,31.3C48.7,88.3,46.7,88.5,44.7,88.7z M42.6,80.3
			c18.1,0.2,33.9-14.5,34.2-33.7C77,27.1,61.3,12.5,43.6,12.1c-18.7-0.5-35,14.4-35.1,34.1C8.4,65,23.8,80.3,42.6,80.3z"/>
		<path class="st0" d="M31,40.5c4.7-2.5,9.5-5,14.2-7.5c0.3-0.2,0.5-0.8,0.5-1.1c0.1-4.1,2.7-7.4,6.7-8.3c4.5-1,9,2,9.9,6.7
			c0.9,4.4-2.3,8.9-6.7,9.7c-2.4,0.4-4.5-0.1-6.5-1.5c-0.3-0.2-0.8-0.2-1.1-0.1c-4.7,2.4-9.3,4.9-13.9,7.3c-0.9,0.4-0.7,1.1-0.7,1.7
			c0,0.2,0.4,0.6,0.7,0.8c4.4,2.2,8.8,4.3,13.2,6.5c0.6,0.3,0.9,0.2,1.4-0.2c2.8-2.4,6.5-2.8,9.6-1.1c3,1.6,4.7,5.1,4.2,8.5
			c-0.5,3.5-3.1,6.2-6.6,7c-4.8,1-9.4-2.4-9.9-7.4c-0.1-0.7-0.3-1-0.9-1.3c-4.6-2.3-9.3-4.6-13.9-6.9c-0.6-0.3-1-0.3-1.7,0.1
			c-3,1.8-6.1,1.8-9-0.2c-3-2-4.1-4.9-3.5-8.4c0.6-3.4,2.8-5.7,6.2-6.6c2.7-0.7,5.2-0.1,7.3,1.7C30.5,40.1,30.8,40.3,31,40.5z"/>
	</g>
</g>
</svg>
